<?xml version="1.0" encoding="UTF-8"?> <svg xmlns="http://www.w3.org/2000/svg" id="Layer_1" version="1.1" viewBox="0 0 1000 400"><defs><style> .st0 { stroke-width: 3px; } .st0, .st1, .st2 { fill: #fff; stroke: #fff; stroke-miterlimit: 10; } .st3 { font-family: ReiherHeadline-Light, 'Reiher Headline'; font-size: 166.6px; } .st3, .st4 { font-weight: 300; } .st3, .st4, .st5 { fill: #231f20; } .st1 { stroke-width: 2px; } .st4 { font-family: PlantinMTPro-Light, 'Plantin MT Pro'; font-size: 122.1px; } .st5 { font-family: AreaExtended-Regular, 'Area Extended'; font-size: 138.9px; } </style></defs><text class="st5" transform="translate(-900.1 -69.7) scale(1 1)"><tspan x="0" y="0">Proactive</tspan></text><text class="st3" transform="translate(-847.6 340.1)"><tspan x="0" y="0">Proactive</tspan></text><text class="st4" transform="translate(-891.4 122.4)"><tspan x="0" y="0">PROACTIVE</tspan></text><g><path class="st2" d="M240.5,128.2c0-23.9-14.6-37-41.8-37s-2.9.2-4.6.2v134.6l1.7,2.3,25.2,2.1c1,.4.8,2.3,0,2.7h-66.4c-.8-.4-1-2.3,0-2.7l17.9-1.9,1.7-2.3V94.3l-1.7-2.3-17.9-1.9c-1-.4-.8-2.3,0-2.7h49.9c44.1,0,57.6,17.7,57.6,38.5s-18.9,42.4-50.1,42.4-3.5,0-5.4-.2c-.8-.4-1-1.7,0-2.3,20.6-1,33.9-15.4,33.9-37.6Z"></path><path class="st2" d="M305.3,167.8c2.3-6,6-11.1,11.2-15.1,5.2-4.1,10.2-6.1,15.2-6.1s8,1.4,10.6,4.2c2.6,2.8,3.9,5.6,3.9,8.5s-.7,3.7-2,5.1c-1.3,1.4-2.9,2.1-4.8,2.1-3.4,0-6-2.5-7.7-7.5-1.2-3.4-3-5.1-5.5-5.1s-6.4,2-10.5,5.9c-4.1,4-6.7,8.1-7.8,12.3-1.2,4.3-1.7,10.1-1.7,17.6v14.8c0,8.9.1,14.5.4,16.8.2,2.3,1.2,4.1,2.9,5.3,1.7,1.2,4.7,1.8,9,1.8h2.8v4.7h-44.2v-4.7h2.1c4.1,0,7-.6,8.7-1.7,1.7-1.1,2.8-2.7,3.1-4.7.3-2,.5-7.9.5-17.5v-23.5c0-8.9-.1-14.5-.4-16.8-.2-2.3-1.2-4-2.9-5.3-1.7-1.3-4.7-1.9-9-1.9h-2.1v-4.6c6.4-.7,14.7-2.7,25-6,2,5.3,3,12.4,3.2,21.2Z"></path><path class="st2" d="M350.3,191.3c0-12.7,4.3-23.4,12.8-31.9,8.5-8.6,19-12.8,31.5-12.8s23.1,4.3,31.6,12.9c8.5,8.6,12.8,19.2,12.8,31.9s-4.3,25-13,33.1c-8.7,8-19.1,12-31.4,12s-22.7-4.1-31.3-12.2c-8.6-8.2-12.9-19.1-12.9-32.9ZM367.1,191.8c0,14.8,2.4,25.1,7.2,31,4.8,5.9,11.5,8.9,20.2,8.9s15.7-3,20.4-8.9c4.7-5.9,7.1-16.3,7.1-31s-2.3-25.1-7-31.3c-4.7-6.2-11.5-9.3-20.4-9.3s-15.7,3.1-20.4,9.3c-4.7,6.2-7.1,16.6-7.1,31.3Z"></path><path class="st2" d="M538.2,217.8h3.8c-.6,11.6-6.3,17.4-17.1,17.4s-8.2-1.2-10.9-3.7c-2.7-2.4-4.4-6.1-5.2-10.9-6.8,4.8-12.9,8.4-18.5,10.9-5.6,2.4-10.6,3.7-15,3.7s-10.5-1.6-14.5-4.9c-4.1-3.3-6.1-7.5-6.1-12.9s3.4-13.1,10.2-18.3c6.8-5.2,16.2-10.3,28.2-15.2l15.7-6.4v-4.1c0-5.8-.4-9.9-1.1-12.5-.7-2.6-2.7-4.9-5.8-6.9-3.1-2-7.2-3-12.3-3-10.2,0-15.8,3.4-17,10.2-1.1,6.9-3.9,10.4-8.5,10.4s-6.2-2-6.2-5.9,2.7-8,8.2-12.4c5.5-4.4,14-6.7,25.6-6.7s15.3,1.4,20,4.1c4.7,2.7,7.9,5.8,9.4,9.2,1.5,3.5,2.3,8.7,2.3,15.8v33.6c0,7.9.4,12.9,1.2,15.1.8,2.2,2.6,3.4,5.3,3.4,4.5,0,7.2-3.3,8.3-10ZM508.7,182.3l-11.1,4.5c-17.5,7.1-26.2,16-26.2,26.8s1.1,7.7,3.4,10.3c2.2,2.6,5.1,3.9,8.7,3.9s6.9-1,11.1-3.1c4.2-2.1,8.9-5.2,14.1-9.4v-32.9Z"></path><path class="st2" d="M623.6,212.7h4.5c-4.6,15.8-16.1,23.7-34.5,23.7s-21.8-4-29.9-12.1c-8.1-8.1-12.1-18.7-12.1-32s4.4-24.6,13.1-33.1c8.7-8.5,19.1-12.7,31-12.7s13.8,1.6,19.8,4.7c6,3.1,9,7,9,11.5s-.6,3.3-1.7,4.8c-1.1,1.5-2.7,2.2-4.8,2.2-4.5,0-7.2-2.6-8.2-7.8-.8-3.9-2.1-6.7-3.8-8.2-1.8-1.6-5.2-2.3-10.3-2.3-9.1,0-15.9,3.1-20.5,9.4-4.6,6.3-6.9,15.8-6.9,28.4s2.5,23.3,7.4,30.7c4.9,7.4,12.3,11.1,22.3,11.1s21.9-6.1,25.6-18.3Z"></path><path class="st2" d="M690,154.5h-25.1v50.3c0,7.7.3,12.9,1,15.6.7,2.7,2.1,4.8,4.3,6.4,2.2,1.6,4.6,2.4,7.1,2.4,4.9,0,9.1-2.8,12.7-8.3l3.2,1.9c-2.1,4.5-5.2,7.8-9.3,10.1-4.1,2.3-8.2,3.4-12.4,3.4s-9.2-1.4-12.8-4.3c-3.7-2.9-6-6.2-6.9-10.1-.9-3.9-1.4-10.6-1.4-20.3v-47.1h-12.1v-4.7c5.6-.1,10.5-2.5,14.9-7,4.4-4.5,7.2-10.9,8.4-19.1h3.2v26.1h25.1v4.7Z"></path><path class="st2" d="M727.1,146.5v58c0,8.9.1,14.5.4,16.8.3,2.3,1.3,4.1,2.9,5.3,1.7,1.2,4.7,1.8,9,1.8h2.1v4.7h-44.8v-4.7h3.5c4.8,0,7.9-.7,9.4-2.1,1.5-1.4,2.3-3,2.5-5,.2-1.9.4-7.5.4-16.8v-25.2c0-9.7-.5-15.7-1.4-17.9-.9-2.2-2.1-3.5-3.7-4.1-1.5-.5-4.2-.8-8-.8h-2.7v-4.7c12.1-1.2,21.4-3,28-5.4h2.2ZM707.5,114.5c0-2.9,1-5.4,3.1-7.5,2.1-2.1,4.6-3.1,7.5-3.1s5.4,1.1,7.4,3.1c2,2.1,3,4.6,3,7.5s-1,5.5-3,7.6c-2,2.1-4.5,3.1-7.4,3.1s-5.4-1-7.5-3.1c-2.1-2.1-3.1-4.6-3.1-7.6Z"></path><path class="st2" d="M836.1,146.7c.7.4.7,1.6,0,2l-9.7,3.3-32.3,80.9-5.5.9-33.3-84-8.6-1.1c-.7-.4-.7-1.6,0-2h41.2c.7.4.7,1.6,0,2l-15.5,1.3-.9,1.3,25.1,66.2,23-64.3-.7-1.5-14.2-2.9c-.7-.4-.7-1.6,0-2h31.3Z"></path><path class="st2" d="M920.5,178h-58c-.3,4-.4,7-.4,8.9,0,14.6,2.3,25.6,6.9,33,4.6,7.3,11.4,11,20.5,11s21.1-5.5,26.2-16.6h4.9c-2.2,6.9-6.5,12.3-12.9,16.2-6.4,3.9-13.4,5.8-21,5.8s-13.7-1.8-20-5.3c-6.3-3.6-11.4-8.6-15.4-15.1-4-6.5-6-14.4-6-23.7,0-13.1,3.9-24.1,11.6-32.8,7.7-8.7,17.4-13.1,28.9-13.1s19.3,3.3,25.3,10c6,6.6,9.1,13.8,9.4,21.5ZM902.7,173.9c.2-1.6.3-2.9.3-4.2,0-6-1.7-10.6-5.2-13.9-3.5-3.3-7.8-4.9-12.8-4.9-12.3,0-19.7,7.7-22,23h39.8Z"></path><path class="st2" d="M471.4,297.1c0-4.5,5-6.4,10.6-7.4,4.9-.8,9.3-.9,9.3-4.3s-3.2-5.7-8-5.7-7.2,2.1-8.4,5.3l-2.5-.7c1.6-4.5,6.6-6.4,11-6.4s10.5,2.1,10.5,7.8v9.3c0,4,.3,5.6.9,7.4h-2.5c-.6-1.8-.8-3.4-.8-5.4h-.1c-1.8,3.4-5.5,6.1-11.1,6.1s-8.9-1.9-8.9-6ZM491.3,292.7v-3.6c-1.6,1.1-2.6,1.5-7.1,2.2-3.6.6-10.3,1.6-10.3,5.7s2.6,4.2,6.4,4.2c6.8,0,10.9-5.1,10.9-8.5Z"></path><path class="st2" d="M504.3,290.5c0-7.5,5.8-12.6,14.1-12.6s9.7,1.7,12,6.6l-2.4.7c-1.5-3.4-5.1-5.5-9.8-5.5-6.9,0-11.3,4.6-11.3,10.7s4.7,10.6,11.6,10.6,9.4-3,11.1-6.6l2.2.6c-2.3,5.3-7.5,8-13.5,8s-14-5.1-14-12.6Z"></path><path class="st2" d="M539.1,290.5c0-7.5,5.8-12.6,14.1-12.6s9.7,1.7,12,6.6l-2.4.7c-1.5-3.4-5.1-5.5-9.8-5.5-6.9,0-11.3,4.6-11.3,10.7s4.7,10.6,11.6,10.6,9.4-3,11.1-6.6l2.2.6c-2.3,5.3-7.5,8-13.5,8s-14-5.1-14-12.6Z"></path><path class="st2" d="M573.9,290.5c0-7.4,5.9-12.6,14.2-12.6s14.2,5.2,14.2,12.6-5.9,12.6-14.2,12.6-14.2-5.2-14.2-12.6ZM599.6,290.5c0-6.3-4.7-10.7-11.5-10.7s-11.6,4.5-11.6,10.7,4.8,10.6,11.6,10.6,11.5-4.4,11.5-10.6Z"></path><path class="st2" d="M612.5,293.5v-14.9h2.4v14c0,6.7,4.5,8.6,8.4,8.6,6.3,0,9.7-4.9,9.7-9v-13.6h2.4v16.4c0,3.5.3,5.2,1,7.4h-2.5c-.6-1.9-.8-3.4-.8-4.8h0c-2.3,4-6.1,5.5-10.2,5.5s-10.3-2.2-10.3-9.6Z"></path><path class="st2" d="M648.5,278.5h2.3v4.8h0c2.3-3.9,6.1-5.5,10.4-5.5s10.5,2.2,10.5,9.6v14.9h-2.4v-14c0-6.6-4.5-8.6-8.6-8.6-6.6,0-10,4.9-10,9v13.5h-2.4v-23.8Z"></path><path class="st2" d="M685.5,295.3v-14.9h-5.7v-1.9h5.7v-7.2h2.4v7.2h9v1.9h-9v14.4c0,2.8,0,6.4,4.1,6.4s3-.4,4.9-1.5v2.1c-1.5.8-3.5,1.3-5.2,1.3-6.2,0-6.2-4.9-6.2-7.8Z"></path><path class="st2" d="M705,269.7c0-1.1,1.1-2,2.5-2s2.4.9,2.4,2-1.1,2.2-2.4,2.2-2.5-1-2.5-2.2ZM706.2,278.5h2.4v23.8h-2.4v-23.8Z"></path><path class="st2" d="M721.8,278.5h2.3v4.8h0c2.3-3.9,6.1-5.5,10.4-5.5s10.5,2.2,10.5,9.6v14.9h-2.4v-14c0-6.6-4.5-8.6-8.6-8.6-6.6,0-10,4.9-10,9v13.5h-2.4v-23.8Z"></path><path class="st2" d="M757,305.5l2.3-.6c1.3,3.4,4.6,5.8,10.6,5.8s10.4-2.2,10.4-10.9v-3.4h-.1c-2.3,3.9-6.6,6-11.4,6-7.5,0-13.3-5.3-13.3-12.3s5.9-12.2,13.4-12.2,9,1.9,11.5,6h0v-5.3h2.3v20.7c0,9.8-5.3,13.3-12.9,13.3s-10.6-2-12.7-7ZM780.2,290c0-6-5.2-10.2-11.3-10.2s-10.9,4.5-10.9,10.3,4.8,10.4,10.9,10.4,11.3-4.4,11.3-10.4Z"></path><path class="st2" d="M847.9,295.3v-14.9h-5.7v-1.9h5.7v-7.2h2.4v7.2h9v1.9h-9v14.4c0,2.8,0,6.4,4.1,6.4s3-.4,4.9-1.5v2.1c-1.5.8-3.5,1.3-5.2,1.3-6.2,0-6.2-4.9-6.2-7.8Z"></path><path class="st2" d="M866.4,297.1c0-4.5,5-6.4,10.6-7.4,4.9-.8,9.3-.9,9.3-4.3s-3.2-5.7-8-5.7-7.2,2.1-8.4,5.3l-2.5-.7c1.6-4.5,6.6-6.4,11-6.4s10.5,2.1,10.5,7.8v9.3c0,4,.3,5.6.9,7.4h-2.5c-.6-1.8-.8-3.4-.8-5.4h-.1c-1.8,3.4-5.5,6.1-11.1,6.1s-8.9-1.9-8.9-6ZM886.3,292.7v-3.6c-1.6,1.1-2.6,1.5-7.1,2.2-3.6.6-10.3,1.6-10.3,5.7s2.6,4.2,6.4,4.2c6.8,0,10.9-5.1,10.9-8.5Z"></path><path class="st2" d="M908.1,290.4h0c-3.5-4-7.1-8-10.5-11.9h2.8c3,3.4,6.1,6.8,9.2,10.3h0c3-3.4,6.1-6.8,9.2-10.3h2.8c-3.5,3.9-7,7.8-10.6,11.8h0c3.5,4,7,8.1,10.5,12h-2.6c-3.1-3.5-6.2-7.1-9.3-10.6h0c-3.1,3.5-6.2,7.1-9.3,10.6h-2.7c3.5-4,7-8,10.5-11.9Z"></path><line class="st1" x1="438.6" y1="292" x2="153.8" y2="292"></line><path class="st2" d="M813.5,293.3h-7.6v-2.1h7.6v-6.6h2.4v6.6h7.7v2.1h-7.7v6.6h-2.4v-6.6Z"></path><line class="st0" x1="78.4" y1="162.5" x2="130.5" y2="162.5"></line><line class="st0" x1="105.2" y1="136.4" x2="105.2" y2="188.6"></line></g></svg> 